<svg xmlns="http://www.w3.org/2000/svg" width="1200" height="230" viewBox="0 0 1200 230" fill="none" role="img"><defs><linearGradient id="sky" x1="0" y1="0" x2="0" y2="1"><stop offset="0" stop-color="#25295c"/><stop offset="1" stop-color="#976774"/></linearGradient><radialGradient id="glow"><stop offset="0" stop-color="#fff7d6" stop-opacity="0.9"/><stop offset="0.35" stop-color="#ffd27a" stop-opacity="0.35"/><stop offset="1" stop-color="#ffd27a" stop-opacity="0"/></radialGradient><radialGradient id="mglow"><stop offset="0" stop-color="#e2e8f0" stop-opacity="0.55"/><stop offset="1" stop-color="#e2e8f0" stop-opacity="0"/></radialGradient><clipPath id="frame"><rect width="1200" height="230" rx="14"/></clipPath></defs><g clip-path="url(#frame)"><rect width="1200" height="230" fill="url(#sky)"/><circle cx="767" cy="4" r="1.0" fill="#fff"><animate attributeName="opacity" values="0.15;1;0.15" dur="3.0s" begin="0.6s" repeatCount="indefinite"/></circle><circle cx="123" cy="104" r="0.6" fill="#fff"><animate attributeName="opacity" values="0.15;1;0.15" dur="4.4s" begin="0.1s" repeatCount="indefinite"/></circle><circle cx="112" cy="33" r="0.6" fill="#fff"><animate attributeName="opacity" values="0.15;1;0.15" dur="4.2s" begin="2.9s" repeatCount="indefinite"/></circle><circle cx="842" cy="59" r="1.4" fill="#fff"><animate attributeName="opacity" values="0.15;1;0.15" dur="4.4s" begin="3.2s" repeatCount="indefinite"/></circle><circle cx="8" cy="113" r="1.4" fill="#fff"><animate attributeName="opacity" values="0.15;1;0.15" dur="3.4s" begin="0.6s" repeatCount="indefinite"/></circle><circle cx="1149" cy="47" r="0.6" fill="#fff"><animate attributeName="opacity" values="0.15;1;0.15" dur="3.5s" begin="1.4s" repeatCount="indefinite"/></circle><circle cx="413" cy="37" r="0.6" fill="#fff"><animate attributeName="opacity" values="0.15;1;0.15" dur="4.9s" begin="2.1s" repeatCount="indefinite"/></circle><circle cx="1168" cy="53" r="1.0" fill="#fff"><animate attributeName="opacity" values="0.15;1;0.15" dur="5.3s" begin="2.5s" repeatCount="indefinite"/></circle><circle cx="1034" cy="81" r="0.6" fill="#fff"><animate attributeName="opacity" values="0.15;1;0.15" dur="2.2s" begin="0.9s" repeatCount="indefinite"/></circle><circle cx="347" cy="11" r="0.8" fill="#fff"><animate attributeName="opacity" values="0.15;1;0.15" dur="5.5s" begin="1.5s" repeatCount="indefinite"/></circle><circle cx="544" cy="117" r="0.8" fill="#fff"><animate attributeName="opacity" values="0.15;1;0.15" dur="3.5s" begin="0.8s" repeatCount="indefinite"/></circle><circle cx="320" cy="131" r="0.6" fill="#fff"><animate attributeName="opacity" values="0.15;1;0.15" dur="4.4s" begin="0.7s" repeatCount="indefinite"/></circle><circle cx="875" cy="23" r="1.4" fill="#fff"><animate attributeName="opacity" values="0.15;1;0.15" dur="3.1s" begin="3.7s" repeatCount="indefinite"/></circle><circle cx="826" cy="31" r="1.0" fill="#fff"><animate attributeName="opacity" values="0.15;1;0.15" dur="5.4s" begin="3.1s" repeatCount="indefinite"/></circle><circle cx="275" cy="4" r="1.0" fill="#fff"><animate attributeName="opacity" values="0.15;1;0.15" dur="3.6s" begin="0.3s" repeatCount="indefinite"/></circle><circle cx="1096" cy="79" r="1.0" fill="#fff"><animate attributeName="opacity" values="0.15;1;0.15" dur="2.9s" begin="2.0s" repeatCount="indefinite"/></circle><circle cx="1062" cy="90" r="0.8" fill="#fff"><animate attributeName="opacity" values="0.15;1;0.15" dur="3.1s" begin="1.0s" repeatCount="indefinite"/></circle><circle cx="674" cy="37" r="1.4" fill="#fff"><animate attributeName="opacity" values="0.15;1;0.15" dur="5.6s" begin="1.6s" repeatCount="indefinite"/></circle><circle cx="263" cy="140" r="1.4" fill="#fff"><animate attributeName="opacity" values="0.15;1;0.15" dur="2.4s" begin="0.2s" repeatCount="indefinite"/></circle><circle cx="132" cy="88" r="1.4" fill="#fff"><animate attributeName="opacity" values="0.15;1;0.15" dur="4.4s" begin="1.5s" repeatCount="indefinite"/></circle><circle cx="715" cy="66" r="1.0" fill="#fff"><animate attributeName="opacity" values="0.15;1;0.15" dur="5.9s" begin="3.4s" repeatCount="indefinite"/></circle><circle cx="14" cy="101" r="1.0" fill="#fff"><animate attributeName="opacity" values="0.15;1;0.15" dur="5.1s" begin="1.4s" repeatCount="indefinite"/></circle><circle cx="352" cy="22" r="0.6" fill="#fff"><animate attributeName="opacity" values="0.15;1;0.15" dur="5.8s" begin="3.5s" repeatCount="indefinite"/></circle><circle cx="316" cy="70" r="0.8" fill="#fff"><animate attributeName="opacity" values="0.15;1;0.15" dur="4.0s" begin="0.4s" repeatCount="indefinite"/></circle><circle cx="750" cy="118" r="0.8" fill="#fff"><animate attributeName="opacity" values="0.15;1;0.15" dur="2.6s" begin="3.1s" repeatCount="indefinite"/></circle><circle cx="647" cy="109" r="0.6" fill="#fff"><animate attributeName="opacity" values="0.15;1;0.15" dur="4.4s" begin="2.0s" repeatCount="indefinite"/></circle><circle cx="134" cy="51" r="1.0" fill="#fff"><animate attributeName="opacity" values="0.15;1;0.15" dur="3.0s" begin="1.0s" repeatCount="indefinite"/></circle><circle cx="681" cy="11" r="1.4" fill="#fff"><animate attributeName="opacity" values="0.15;1;0.15" dur="5.3s" begin="3.9s" repeatCount="indefinite"/></circle><circle cx="639" cy="18" r="1.4" fill="#fff"><animate attributeName="opacity" values="0.15;1;0.15" dur="5.8s" begin="0.7s" repeatCount="indefinite"/></circle><circle cx="633" cy="85" r="0.8" fill="#fff"><animate attributeName="opacity" values="0.15;1;0.15" dur="5.7s" begin="3.0s" repeatCount="indefinite"/></circle><circle cx="828" cy="100" r="1.4" fill="#fff"><animate attributeName="opacity" values="0.15;1;0.15" dur="6.0s" begin="2.6s" repeatCount="indefinite"/></circle><circle cx="526" cy="72" r="0.6" fill="#fff"><animate attributeName="opacity" values="0.15;1;0.15" dur="3.0s" begin="0.3s" repeatCount="indefinite"/></circle><circle cx="25" cy="78" r="0.8" fill="#fff"><animate attributeName="opacity" values="0.15;1;0.15" dur="2.0s" begin="2.8s" repeatCount="indefinite"/></circle><circle cx="71" cy="9" r="0.6" fill="#fff"><animate attributeName="opacity" values="0.15;1;0.15" dur="5.4s" begin="0.3s" repeatCount="indefinite"/></circle><circle cx="286" cy="94" r="0.8" fill="#fff"><animate attributeName="opacity" values="0.15;1;0.15" dur="4.2s" begin="2.9s" repeatCount="indefinite"/></circle><circle cx="1059" cy="81" r="0.8" fill="#fff"><animate attributeName="opacity" values="0.15;1;0.15" dur="5.1s" begin="3.2s" repeatCount="indefinite"/></circle><circle cx="228" cy="14" r="1.4" fill="#fff"><animate attributeName="opacity" values="0.15;1;0.15" dur="3.4s" begin="1.6s" repeatCount="indefinite"/></circle><circle cx="1037" cy="8" r="0.6" fill="#fff"><animate attributeName="opacity" values="0.15;1;0.15" dur="2.2s" begin="2.9s" repeatCount="indefinite"/></circle><circle cx="961" cy="15" r="0.8" fill="#fff"><animate attributeName="opacity" values="0.15;1;0.15" dur="2.8s" begin="1.8s" repeatCount="indefinite"/></circle><circle cx="506" cy="39" r="0.8" fill="#fff"><animate attributeName="opacity" values="0.15;1;0.15" dur="5.5s" begin="0.3s" repeatCount="indefinite"/></circle><circle cx="970" cy="120" r="0.6" fill="#fff"><animate attributeName="opacity" values="0.15;1;0.15" dur="2.2s" begin="4.0s" repeatCount="indefinite"/></circle><circle cx="1003" cy="136" r="0.8" fill="#fff"><animate attributeName="opacity" values="0.15;1;0.15" dur="2.7s" begin="1.9s" repeatCount="indefinite"/></circle><circle cx="256" cy="56" r="0.6" fill="#fff"><animate attributeName="opacity" values="0.15;1;0.15" dur="2.7s" begin="0.0s" repeatCount="indefinite"/></circle><circle cx="469" cy="130" r="1.4" fill="#fff"><animate attributeName="opacity" values="0.15;1;0.15" dur="3.1s" begin="2.8s" repeatCount="indefinite"/></circle><circle cx="877" cy="110" r="1.4" fill="#fff"><animate attributeName="opacity" values="0.15;1;0.15" dur="2.6s" begin="1.2s" repeatCount="indefinite"/></circle><circle cx="1162" cy="81" r="0.6" fill="#fff"><animate attributeName="opacity" values="0.15;1;0.15" dur="5.0s" begin="0.2s" repeatCount="indefinite"/></circle><circle cx="701" cy="70" r="0.8" fill="#fff"><animate attributeName="opacity" values="0.15;1;0.15" dur="2.2s" begin="2.0s" repeatCount="indefinite"/></circle><circle cx="1022" cy="10" r="0.6" fill="#fff"><animate attributeName="opacity" values="0.15;1;0.15" dur="4.7s" begin="0.9s" repeatCount="indefinite"/></circle><circle cx="144" cy="125" r="0.8" fill="#fff"><animate attributeName="opacity" values="0.15;1;0.15" dur="4.3s" begin="0.2s" repeatCount="indefinite"/></circle><circle cx="98" cy="92" r="1.0" fill="#fff"><animate attributeName="opacity" values="0.15;1;0.15" dur="5.7s" begin="0.8s" repeatCount="indefinite"/></circle><circle cx="859" cy="33" r="1.4" fill="#fff"><animate attributeName="opacity" values="0.15;1;0.15" dur="2.5s" begin="2.6s" repeatCount="indefinite"/></circle><circle cx="549" cy="130" r="0.6" fill="#fff"><animate attributeName="opacity" values="0.15;1;0.15" dur="2.0s" begin="2.5s" repeatCount="indefinite"/></circle><circle cx="676" cy="14" r="0.8" fill="#fff"><animate attributeName="opacity" values="0.15;1;0.15" dur="4.0s" begin="0.5s" repeatCount="indefinite"/></circle><circle cx="419" cy="10" r="0.8" fill="#fff"><animate attributeName="opacity" values="0.15;1;0.15" dur="3.5s" begin="0.6s" repeatCount="indefinite"/></circle><circle cx="1000" cy="98" r="0.6" fill="#fff"><animate attributeName="opacity" values="0.15;1;0.15" dur="4.7s" begin="2.2s" repeatCount="indefinite"/></circle><circle cx="1118" cy="15" r="0.8" fill="#fff"><animate attributeName="opacity" values="0.15;1;0.15" dur="3.1s" begin="3.6s" repeatCount="indefinite"/></circle><circle cx="891" cy="22" r="1.0" fill="#fff"><animate attributeName="opacity" values="0.15;1;0.15" dur="4.4s" begin="2.9s" repeatCount="indefinite"/></circle><circle cx="244" cy="89" r="1.0" fill="#fff"><animate attributeName="opacity" values="0.15;1;0.15" dur="4.0s" begin="1.0s" repeatCount="indefinite"/></circle><circle cx="1090" cy="7" r="1.4" fill="#fff"><animate attributeName="opacity" values="0.15;1;0.15" dur="5.3s" begin="0.2s" repeatCount="indefinite"/></circle><circle cx="400" cy="18" r="1.0" fill="#fff"><animate attributeName="opacity" values="0.15;1;0.15" dur="2.6s" begin="1.8s" repeatCount="indefinite"/></circle><circle cx="847" cy="79" r="0.6" fill="#fff"><animate attributeName="opacity" values="0.15;1;0.15" dur="2.3s" begin="3.5s" repeatCount="indefinite"/></circle><circle cx="1085" cy="76" r="1.0" fill="#fff"><animate attributeName="opacity" values="0.15;1;0.15" dur="4.3s" begin="0.6s" repeatCount="indefinite"/></circle><circle cx="153" cy="43" r="0.6" fill="#fff"><animate attributeName="opacity" values="0.15;1;0.15" dur="5.6s" begin="0.8s" repeatCount="indefinite"/></circle><circle cx="299" cy="14" r="1.4" fill="#fff"><animate attributeName="opacity" values="0.15;1;0.15" dur="5.9s" begin="3.0s" repeatCount="indefinite"/></circle><circle cx="1111" cy="33" r="0.8" fill="#fff"><animate attributeName="opacity" values="0.15;1;0.15" dur="5.9s" begin="3.2s" repeatCount="indefinite"/></circle><circle cx="1058" cy="3" r="1.0" fill="#fff"><animate attributeName="opacity" values="0.15;1;0.15" dur="5.1s" begin="1.6s" repeatCount="indefinite"/></circle><circle cx="804" cy="103" r="0.8" fill="#fff"><animate attributeName="opacity" values="0.15;1;0.15" dur="3.1s" begin="3.1s" repeatCount="indefinite"/></circle><circle cx="130" cy="122" r="1.4" fill="#fff"><animate attributeName="opacity" values="0.15;1;0.15" dur="2.9s" begin="3.3s" repeatCount="indefinite"/></circle><circle cx="552" cy="43" r="0.8" fill="#fff"><animate attributeName="opacity" values="0.15;1;0.15" dur="2.9s" begin="2.6s" repeatCount="indefinite"/></circle><circle cx="478" cy="39" r="0.6" fill="#fff"><animate attributeName="opacity" values="0.15;1;0.15" dur="5.9s" begin="1.1s" repeatCount="indefinite"/></circle><circle cx="770" cy="56" r="1.0" fill="#fff"><animate attributeName="opacity" values="0.15;1;0.15" dur="5.8s" begin="0.5s" repeatCount="indefinite"/></circle><circle cx="1164" cy="25" r="1.0" fill="#fff"><animate attributeName="opacity" values="0.15;1;0.15" dur="2.2s" begin="2.4s" repeatCount="indefinite"/></circle><circle cx="415" cy="110" r="1.4" fill="#fff"><animate attributeName="opacity" values="0.15;1;0.15" dur="4.4s" begin="2.0s" repeatCount="indefinite"/></circle><circle cx="462" cy="81" r="1.0" fill="#fff"><animate attributeName="opacity" values="0.15;1;0.15" dur="2.2s" begin="1.7s" repeatCount="indefinite"/></circle><circle cx="624" cy="113" r="0.8" fill="#fff"><animate attributeName="opacity" values="0.15;1;0.15" dur="3.5s" begin="0.3s" repeatCount="indefinite"/></circle><circle cx="797" cy="46" r="1.0" fill="#fff"><animate attributeName="opacity" values="0.15;1;0.15" dur="4.7s" begin="0.5s" repeatCount="indefinite"/></circle><circle cx="1080" cy="71" r="1.4" fill="#fff"><animate attributeName="opacity" values="0.15;1;0.15" dur="3.3s" begin="2.8s" repeatCount="indefinite"/></circle><circle cx="665" cy="27" r="1.4" fill="#fff"><animate attributeName="opacity" values="0.15;1;0.15" dur="4.7s" begin="3.6s" repeatCount="indefinite"/></circle><circle cx="739" cy="42" r="0.6" fill="#fff"><animate attributeName="opacity" values="0.15;1;0.15" dur="3.2s" begin="0.8s" repeatCount="indefinite"/></circle><circle cx="943" cy="85" r="1.0" fill="#fff"><animate attributeName="opacity" values="0.15;1;0.15" dur="3.9s" begin="1.8s" repeatCount="indefinite"/></circle><circle cx="256" cy="66" r="0.8" fill="#fff"><animate attributeName="opacity" values="0.15;1;0.15" dur="4.6s" begin="1.1s" repeatCount="indefinite"/></circle><circle cx="797" cy="87" r="0.6" fill="#fff"><animate attributeName="opacity" values="0.15;1;0.15" dur="5.3s" begin="3.0s" repeatCount="indefinite"/></circle><circle cx="807" cy="31" r="0.8" fill="#fff"><animate attributeName="opacity" values="0.15;1;0.15" dur="2.6s" begin="0.2s" repeatCount="indefinite"/></circle><circle cx="1181" cy="86" r="0.6" fill="#fff"><animate attributeName="opacity" values="0.15;1;0.15" dur="3.8s" begin="3.5s" repeatCount="indefinite"/></circle><circle cx="691" cy="101" r="1.4" fill="#fff"><animate attributeName="opacity" values="0.15;1;0.15" dur="4.0s" begin="1.0s" repeatCount="indefinite"/></circle><circle cx="787" cy="1" r="0.6" fill="#fff"><animate attributeName="opacity" values="0.15;1;0.15" dur="5.1s" begin="0.9s" repeatCount="indefinite"/></circle><circle cx="965" cy="97" r="1.4" fill="#fff"><animate attributeName="opacity" values="0.15;1;0.15" dur="2.2s" begin="1.0s" repeatCount="indefinite"/></circle><circle cx="1018" cy="64" r="1.4" fill="#fff"><animate attributeName="opacity" values="0.15;1;0.15" dur="4.7s" begin="4.0s" repeatCount="indefinite"/></circle><circle cx="715" cy="133" r="1.4" fill="#fff"><animate attributeName="opacity" values="0.15;1;0.15" dur="4.5s" begin="2.9s" repeatCount="indefinite"/></circle><circle cx="606" cy="116" r="1.4" fill="#fff"><animate attributeName="opacity" values="0.15;1;0.15" dur="5.6s" begin="3.0s" repeatCount="indefinite"/></circle><line x1="0" y1="0" x2="70" y2="18" stroke="#fff" stroke-width="1.6" stroke-linecap="round" opacity="0"><animateTransform attributeName="transform" type="translate" values="150 10;650 140" dur="1.3s" begin="2s;9s;17s" fill="freeze"/><animate attributeName="opacity" values="0;1;0" dur="1.3s" begin="2s;9s;17s"/></line><circle cx="1085" cy="147" r="68" fill="url(#mglow)"><animate attributeName="r" values="64;76;64" dur="5s" repeatCount="indefinite"/></circle><circle cx="1085" cy="147" r="20" fill="#e5e7eb"/><circle cx="1093" cy="142" r="18" fill="#25295c" opacity="0.92"/><g opacity="0.25"><g><animateTransform attributeName="transform" type="translate" values="606 35;1400 35" dur="38s" fill="freeze"/><g transform="scale(0.98)" fill="#8b93b8"><ellipse cx="0" cy="12" rx="46" ry="14"/><ellipse cx="-18" cy="4" rx="22" ry="16"/><ellipse cx="14" cy="0" rx="26" ry="20"/></g></g></g><g opacity="0.25"><g transform="translate(-200 35)"><animateTransform attributeName="transform" type="translate" values="-200 35;1400 35" dur="82s" begin="38s" repeatCount="indefinite"/><g transform="scale(0.98)" fill="#8b93b8"><ellipse cx="0" cy="12" rx="46" ry="14"/><ellipse cx="-18" cy="4" rx="22" ry="16"/><ellipse cx="14" cy="0" rx="26" ry="20"/></g></g></g><path d="M0,200V173H48V200ZM51,200V179H120V200ZM120,200V176H182V200ZM184,200V179H249V200ZM253,200V180H294V200ZM294,200V156H349V200ZM349,200V177H392V200ZM396,200V179H451V200ZM457,200V175H521V200ZM522,200V142H590V200ZM594,200V146H625V200ZM629,200V179H682V200ZM683,200V147H713V200ZM719,200V164H755V200ZM758,200V148H795V200ZM795,200V163H859V200ZM863,200V176H902V200ZM906,200V142H970V200ZM971,200V176H1022V200ZM1026,200V146H1058V200ZM1058,200V169H1125V200ZM1128,200V155H1190V200ZM1196,200V153H1244V200ZM807,200L814,50H826L833,200ZM805,170H835V166H805ZM807,138H833V134H807ZM809,106H831V102H809ZM811,74H829V70H811ZM817,50V40H823V50ZM986,200Q996,164 1006,160Q1016,164 1026,200ZM1003,200Q1013,150 1023,146Q1033,150 1043,200ZM1020,200Q1030,142 1040,138Q1050,142 1060,200ZM1037,200Q1047,150 1057,146Q1067,150 1077,200ZM1054,200Q1064,164 1074,160Q1084,164 1094,200Z" fill="#120f22"/><path d="M254,200V130H346V200ZM284,200V160Q300,138 316,160V200ZM248,130H352V120H248ZM270,120H330L318,108H282Z" fill="#120f22" fill-rule="evenodd"/><rect y="200" width="1200" height="30" fill="#120f22"/><rect x="541" y="171" width="3" height="4" fill="#fde68a"><animate attributeName="opacity" values="0.9;0.9;0;0.9" dur="7.6s" repeatCount="indefinite"/></rect><rect x="1020" y="153" width="3" height="4" fill="#fde68a"><animate attributeName="opacity" values="0.2;0.9;0.2" dur="7.8s" repeatCount="indefinite"/></rect><rect x="733" y="153" width="3" height="4" fill="#fde68a"><animate attributeName="opacity" values="0.9;0.9;0;0.9" dur="6.4s" repeatCount="indefinite"/></rect><rect x="112" y="183" width="3" height="4" fill="#fde68a"><animate attributeName="opacity" values="0.2;0.9;0.2" dur="9.1s" repeatCount="indefinite"/></rect><rect x="711" y="163" width="3" height="4" fill="#fde68a"><animate attributeName="opacity" values="0.9;0.9;0;0.9" dur="9.2s" repeatCount="indefinite"/></rect><rect x="735" y="152" width="3" height="4" fill="#fde68a"><animate attributeName="opacity" values="0;0.9;0.9;0" dur="10.7s" repeatCount="indefinite"/></rect><rect x="79" y="146" width="3" height="4" fill="#fde68a"><animate attributeName="opacity" values="0;0.9;0.9;0" dur="8.8s" repeatCount="indefinite"/></rect><rect x="928" y="160" width="3" height="4" fill="#fde68a"><animate attributeName="opacity" values="0.2;0.9;0.2" dur="10.7s" repeatCount="indefinite"/></rect><rect x="621" y="175" width="3" height="4" fill="#fde68a"><animate attributeName="opacity" values="0.9;0.9;0;0.9" dur="4.0s" repeatCount="indefinite"/></rect><rect x="105" y="175" width="3" height="4" fill="#fde68a"><animate attributeName="opacity" values="0.9;0.9;0;0.9" dur="12.0s" repeatCount="indefinite"/></rect><rect x="1187" y="184" width="3" height="4" fill="#fde68a"><animate attributeName="opacity" values="0.2;0.9;0.2" dur="6.0s" repeatCount="indefinite"/></rect><rect x="904" y="169" width="3" height="4" fill="#fde68a"><animate attributeName="opacity" values="0;0.9;0.9;0" dur="4.6s" repeatCount="indefinite"/></rect><rect x="914" y="163" width="3" height="4" fill="#fde68a"><animate attributeName="opacity" values="0.9;0.9;0;0.9" dur="7.1s" repeatCount="indefinite"/></rect><rect x="1142" y="185" width="3" height="4" fill="#fde68a"><animate attributeName="opacity" values="0;0.9;0.9;0" dur="5.7s" repeatCount="indefinite"/></rect><rect x="1105" y="147" width="3" height="4" fill="#fde68a"><animate attributeName="opacity" values="0.9;0.9;0;0.9" dur="11.8s" repeatCount="indefinite"/></rect><rect x="476" y="148" width="3" height="4" fill="#fde68a"><animate attributeName="opacity" values="0.2;0.9;0.2" dur="5.6s" repeatCount="indefinite"/></rect><rect x="806" y="160" width="3" height="4" fill="#fde68a"><animate attributeName="opacity" values="0.9;0.9;0;0.9" dur="6.7s" repeatCount="indefinite"/></rect><rect x="1149" y="180" width="3" height="4" fill="#fde68a"><animate attributeName="opacity" values="0;0.9;0.9;0" dur="5.1s" repeatCount="indefinite"/></rect><rect x="844" y="145" width="3" height="4" fill="#fde68a"><animate attributeName="opacity" values="0.9;0.9;0;0.9" dur="10.4s" repeatCount="indefinite"/></rect><rect x="215" y="171" width="3" height="4" fill="#fde68a"><animate attributeName="opacity" values="0.9;0.9;0;0.9" dur="8.1s" repeatCount="indefinite"/></rect><rect x="1175" y="181" width="3" height="4" fill="#fde68a"><animate attributeName="opacity" values="0.9;0.9;0;0.9" dur="9.1s" repeatCount="indefinite"/></rect><rect x="142" y="164" width="3" height="4" fill="#fde68a"><animate attributeName="opacity" values="0;0.9;0.9;0" dur="4.0s" repeatCount="indefinite"/></rect><rect x="1031" y="191" width="3" height="4" fill="#fde68a"><animate attributeName="opacity" values="0.2;0.9;0.2" dur="6.4s" repeatCount="indefinite"/></rect><rect x="1055" y="154" width="3" height="4" fill="#fde68a"><animate attributeName="opacity" values="0.9;0.9;0;0.9" dur="12.0s" repeatCount="indefinite"/></rect><rect x="719" y="172" width="3" height="4" fill="#fde68a"><animate attributeName="opacity" values="0;0.9;0.9;0" dur="11.9s" repeatCount="indefinite"/></rect><rect x="257" y="156" width="3" height="4" fill="#fde68a"><animate attributeName="opacity" values="0.2;0.9;0.2" dur="6.6s" repeatCount="indefinite"/></rect><rect x="356" y="148" width="3" height="4" fill="#fde68a"><animate attributeName="opacity" values="0;0.9;0.9;0" dur="5.7s" repeatCount="indefinite"/></rect><rect x="760" y="145" width="3" height="4" fill="#fde68a"><animate attributeName="opacity" values="0.9;0.9;0;0.9" dur="7.0s" repeatCount="indefinite"/></rect><rect x="542" y="190" width="3" height="4" fill="#fde68a"><animate attributeName="opacity" values="0.9;0.9;0;0.9" dur="10.7s" repeatCount="indefinite"/></rect><rect x="165" y="163" width="3" height="4" fill="#fde68a"><animate attributeName="opacity" values="0.2;0.9;0.2" dur="5.2s" repeatCount="indefinite"/></rect><rect x="1083" y="183" width="3" height="4" fill="#fde68a"><animate attributeName="opacity" values="0;0.9;0.9;0" dur="9.8s" repeatCount="indefinite"/></rect><rect x="192" y="174" width="3" height="4" fill="#fde68a"><animate attributeName="opacity" values="0.2;0.9;0.2" dur="5.6s" repeatCount="indefinite"/></rect><rect x="1133" y="186" width="3" height="4" fill="#fde68a"><animate attributeName="opacity" values="0.2;0.9;0.2" dur="4.6s" repeatCount="indefinite"/></rect><rect x="60" y="149" width="3" height="4" fill="#fde68a"><animate attributeName="opacity" values="0.2;0.9;0.2" dur="11.7s" repeatCount="indefinite"/></rect><rect x="287" y="178" width="3" height="4" fill="#fde68a"><animate attributeName="opacity" values="0.9;0.9;0;0.9" dur="7.4s" repeatCount="indefinite"/></rect><rect x="1079" y="168" width="3" height="4" fill="#fde68a"><animate attributeName="opacity" values="0.2;0.9;0.2" dur="5.4s" repeatCount="indefinite"/></rect><rect x="860" y="147" width="3" height="4" fill="#fde68a"><animate attributeName="opacity" values="0;0.9;0.9;0" dur="7.8s" repeatCount="indefinite"/></rect><rect x="780" y="174" width="3" height="4" fill="#fde68a"><animate attributeName="opacity" values="0;0.9;0.9;0" dur="6.2s" repeatCount="indefinite"/></rect><rect x="1094" y="154" width="3" height="4" fill="#fde68a"><animate attributeName="opacity" values="0;0.9;0.9;0" dur="4.6s" repeatCount="indefinite"/></rect><rect x="493" y="156" width="3" height="4" fill="#fde68a"><animate attributeName="opacity" values="0;0.9;0.9;0" dur="5.4s" repeatCount="indefinite"/></rect><rect x="442" y="171" width="3" height="4" fill="#fde68a"><animate attributeName="opacity" values="0;0.9;0.9;0" dur="4.7s" repeatCount="indefinite"/></rect><rect x="168" y="166" width="3" height="4" fill="#fde68a"><animate attributeName="opacity" values="0.9;0.9;0;0.9" dur="9.3s" repeatCount="indefinite"/></rect><rect x="825" y="172" width="3" height="4" fill="#fde68a"><animate attributeName="opacity" values="0;0.9;0.9;0" dur="8.7s" repeatCount="indefinite"/></rect><rect x="1101" y="167" width="3" height="4" fill="#fde68a"><animate attributeName="opacity" values="0.9;0.9;0;0.9" dur="9.6s" repeatCount="indefinite"/></rect><rect x="1148" y="145" width="3" height="4" fill="#fde68a"><animate attributeName="opacity" values="0.2;0.9;0.2" dur="4.6s" repeatCount="indefinite"/></rect><rect x="84" y="159" width="3" height="4" fill="#fde68a"><animate attributeName="opacity" values="0;0.9;0.9;0" dur="12.0s" repeatCount="indefinite"/></rect><rect x="93" y="170" width="3" height="4" fill="#fde68a"><animate attributeName="opacity" values="0.2;0.9;0.2" dur="4.4s" repeatCount="indefinite"/></rect><rect x="1116" y="179" width="3" height="4" fill="#fde68a"><animate attributeName="opacity" values="0;0.9;0.9;0" dur="10.3s" repeatCount="indefinite"/></rect><rect x="1091" y="161" width="3" height="4" fill="#fde68a"><animate attributeName="opacity" values="0.2;0.9;0.2" dur="7.8s" repeatCount="indefinite"/></rect><rect x="96" y="185" width="3" height="4" fill="#fde68a"><animate attributeName="opacity" values="0;0.9;0.9;0" dur="10.9s" repeatCount="indefinite"/></rect><rect x="684" y="174" width="3" height="4" fill="#fde68a"><animate attributeName="opacity" values="0.9;0.9;0;0.9" dur="7.0s" repeatCount="indefinite"/></rect><rect x="19" y="147" width="3" height="4" fill="#fde68a"><animate attributeName="opacity" values="0;0.9;0.9;0" dur="9.1s" repeatCount="indefinite"/></rect><rect x="1184" y="186" width="3" height="4" fill="#fde68a"><animate attributeName="opacity" values="0.2;0.9;0.2" dur="6.6s" repeatCount="indefinite"/></rect><rect x="1114" y="177" width="3" height="4" fill="#fde68a"><animate attributeName="opacity" values="0.9;0.9;0;0.9" dur="7.5s" repeatCount="indefinite"/></rect><rect x="1000" y="148" width="3" height="4" fill="#fde68a"><animate attributeName="opacity" values="0.2;0.9;0.2" dur="4.2s" repeatCount="indefinite"/></rect><rect x="718" y="167" width="3" height="4" fill="#fde68a"><animate attributeName="opacity" values="0;0.9;0.9;0" dur="11.7s" repeatCount="indefinite"/></rect><rect x="138" y="181" width="3" height="4" fill="#fde68a"><animate attributeName="opacity" values="0.2;0.9;0.2" dur="11.4s" repeatCount="indefinite"/></rect><rect x="308" y="145" width="3" height="4" fill="#fde68a"><animate attributeName="opacity" values="0.9;0.9;0;0.9" dur="5.1s" repeatCount="indefinite"/></rect><rect x="731" y="169" width="3" height="4" fill="#fde68a"><animate attributeName="opacity" values="0.9;0.9;0;0.9" dur="9.3s" repeatCount="indefinite"/></rect><rect x="529" y="187" width="3" height="4" fill="#fde68a"><animate attributeName="opacity" values="0.9;0.9;0;0.9" dur="7.2s" repeatCount="indefinite"/></rect><rect x="302" y="174" width="3" height="4" fill="#fde68a"><animate attributeName="opacity" values="0;0.9;0.9;0" dur="11.0s" repeatCount="indefinite"/></rect><rect x="461" y="172" width="3" height="4" fill="#fde68a"><animate attributeName="opacity" values="0.9;0.9;0;0.9" dur="5.7s" repeatCount="indefinite"/></rect><rect x="164" y="161" width="3" height="4" fill="#fde68a"><animate attributeName="opacity" values="0;0.9;0.9;0" dur="9.7s" repeatCount="indefinite"/></rect><rect x="1133" y="157" width="3" height="4" fill="#fde68a"><animate attributeName="opacity" values="0;0.9;0.9;0" dur="4.9s" repeatCount="indefinite"/></rect><rect x="564" y="188" width="3" height="4" fill="#fde68a"><animate attributeName="opacity" values="0.9;0.9;0;0.9" dur="7.1s" repeatCount="indefinite"/></rect><rect x="622" y="176" width="3" height="4" fill="#fde68a"><animate attributeName="opacity" values="0.2;0.9;0.2" dur="10.7s" repeatCount="indefinite"/></rect><rect x="1171" y="166" width="3" height="4" fill="#fde68a"><animate attributeName="opacity" values="0;0.9;0.9;0" dur="10.6s" repeatCount="indefinite"/></rect><rect x="334" y="173" width="3" height="4" fill="#fde68a"><animate attributeName="opacity" values="0.2;0.9;0.2" dur="9.7s" repeatCount="indefinite"/></rect><rect x="682" y="159" width="3" height="4" fill="#fde68a"><animate attributeName="opacity" values="0.2;0.9;0.2" dur="4.2s" repeatCount="indefinite"/></rect><rect x="165" y="166" width="3" height="4" fill="#fde68a"><animate attributeName="opacity" values="0;0.9;0.9;0" dur="10.2s" repeatCount="indefinite"/></rect><rect x="20" y="16" width="450" height="58" rx="10" fill="#000" opacity="0.34"/><text x="38" y="42" font-family="'JetBrains Mono', SFMono-Regular, Consolas, 'Liberation Mono', monospace" font-size="17" font-weight="700" fill="#f8fafc">05:54 IST<tspan fill="#cbd5e1" font-weight="400"> · New Delhi · 23°C clear</tspan></text><text x="38" y="63" font-family="'JetBrains Mono', SFMono-Regular, Consolas, 'Liberation Mono', monospace" font-size="13" fill="#e2e8f0"><tspan fill="#c3f53c">●</tspan> asleep (the servers aren&#x27;t)</text><circle cx="454" cy="30" r="4" fill="#f43f5e"><animate attributeName="opacity" values="1;0.2;1" dur="1.4s" repeatCount="indefinite"/></circle><text x="444" y="34" text-anchor="end" font-family="'JetBrains Mono', SFMono-Regular, Consolas, 'Liberation Mono', monospace" font-size="10" letter-spacing="2" fill="#fecdd3">LIVE</text></g></svg>
